<svg xmlns="http://www.w3.org/2000/svg" viewBox="0 0 960 560" enable-background="new 0 0 960 560"><path fill="#100E0F" d="M186.3 261.6h-80.1c-2.1 0-3.7 1.6-3.7 3.7v39.1c0 2.1 1.6 3.7 3.7 3.7h31.2v48.5s-6.9 2.5-26.3 2.5c-22.9 0-54.6-8.3-54.6-78.5S89.8 201 120.9 201c26.9 0 38.7 4.7 46 7.1 2.5.8 4.5-1.6 4.5-3.7l9-37.9c0-1-.4-2.3-1.4-3.1-3.1-2.3-21.4-12.5-67.7-12.5-53.4.1-108.2 23-108.2 132.3s62.6 125.4 115.7 125.4c43.8 0 70.4-18.5 70.4-18.5 1.2-.6 1.2-2.3 1.2-2.9v-122c-.4-2.2-2-3.6-4.1-3.6zm412.3-97.3c0-2.1-1.6-3.7-3.7-3.7h-45c-2.1 0-3.7 1.6-3.7 3.7v87H476v-87c0-2.1-1.6-3.7-3.7-3.7h-45c-2.1 0-3.7 1.6-3.7 3.7v235.6c0 2.1 1.6 3.7 3.7 3.7h45c2.1 0 3.7-1.9 3.7-3.7V299h70.2l-.2 100.9c0 2.1 1.6 3.7 3.7 3.7h45.2c2.1 0 3.7-1.9 3.7-3.7V164.3zm-327.2 31c0-16.3-13.1-29.4-29.2-29.4s-28.9 13.1-28.9 29.4 13.1 29.4 28.9 29.4c16.1 0 29.2-13.3 29.2-29.4zm-3.3 155V241.4c0-2.1-1.6-3.7-3.7-3.7h-45c-2.1 0-3.9 2.3-3.9 4.1v155.8c0 4.5 2.9 5.9 6.5 5.9h40.4c4.3 0 5.5-2.3 5.5-5.9.2-8.2.2-41.1.2-47.3zm501.5-112.2H725c-2.1 0-3.7 1.9-3.7 3.7v115.6s-11.2 8.3-27.5 8.3c-16.1 0-20.4-7.3-20.4-23.3V241.8c0-2.1-1.6-3.7-3.7-3.7h-45.4c-2.1 0-3.7 1.9-3.7 3.7v108.5c0 46.7 26.1 58.3 62 58.3 29.6 0 53.4-16.3 53.4-16.3s1.2 8.6 1.6 9.6c.6 1 1.9 2.1 3.5 2.1l28.9-.2c2.1 0 3.7-1.9 3.7-3.7V241.8c-.3-2.1-2-3.7-4.1-3.7zm122.1-5.3c-25.2 0-42.6 11.2-42.6 11.2v-79.9c0-2.1-1.6-3.7-3.7-3.7h-45.2c-2.1 0-3.7 1.6-3.7 3.7v235.6c0 2.1 1.6 3.7 3.7 3.7h31.4c1.4 0 2.7-.8 3.3-2.1.8-1.2 2.1-10.8 2.1-10.8s18.3 17.5 53.4 17.5c41 0 64.6-20.8 64.6-93.5-.4-72.3-37.7-81.7-63.3-81.7zm-17.5 132.7c-15.5-.4-25.9-7.5-25.9-7.5v-74.8s10.4-6.3 23.3-7.5c16.1-1.4 31.6 3.5 31.6 41.8-.3 40.7-7.2 48.6-29 48zM397.4 237.7h-33.6v-44.6c0-1.9-.8-2.7-2.9-2.7h-46c-1.9 0-2.9.8-2.9 2.7v46.3s-23.1 5.5-24.6 5.9c-1.6.4-2.9 2.1-2.9 3.7v28.9c0 2.3 1.6 3.7 3.7 3.7h23.7v69.7c0 51.8 36.3 56.9 60.8 56.9 11.2 0 24.6-3.7 26.7-4.3 1.4-.4 2.3-1.9 2.3-3.5v-32c0-2.1-1.9-3.7-3.7-3.7s-6.9.8-12.3.8c-16.7 0-22.3-7.7-22.3-17.7v-66.2h34c2.1 0 3.7-1.6 3.7-3.7v-36.3c.1-2.3-1.5-3.9-3.7-3.9z"/></svg>