<svg xmlns="http://www.w3.org/2000/svg" width="175.7" height="20.2" viewBox="0 0 175.7 20.2" enable-background="new 0 0 175.67 20.176"><path fill-rule="evenodd" clip-rule="evenodd" fill="#0063AA" d="M163.8 20.2V0H0v20.2h163.8z"/><path fill-rule="evenodd" clip-rule="evenodd" fill="#E7003C" d="M175.7 20.2V0h-11.9v20.2h11.9z"/><path fill-rule="evenodd" clip-rule="evenodd" fill="#fff" d="M16.7 8.5c-.3 2.2-.5 4.4-.6 6.6-.3 0-.5-.1-.8-.1-.3 0-.5 0-.8.1.7-3.4 1.2-6.7 1.7-10.1.2 0 .4.1.7.1.2 0 .4 0 .6-.1 1.2 2.3 2.5 4.9 3.7 7 1.3-2.2 2.6-4.7 3.7-7 .2 0 .5.1.7.1.2 0 .4 0 .7-.1.4 3.4 1 8 1.4 10.1-.4 0-.9-.1-1.3-.1s-.9 0-1.3.1c-.1-2-.4-4.5-.6-6.8-1.2 2.3-2.4 4.5-3.5 6.8h-.6c-1.1-2.2-2.3-4.4-3.5-6.6h-.2zm22.7 6.7c-.5 0-1-.1-1.4-.1-.4 0-.9 0-1.4.1-.3-1-.7-2-1.1-3h-3.8c-.4 1-.8 2-1.1 3-.3 0-.5-.1-.8-.1-.3 0-.5 0-.8.1.8-1.6 3.2-6.8 4.6-10.1.2 0 .4.1.6.1s.4 0 .6-.1c1.5 3.2 3.4 7.7 4.6 10.1zm-4.3-3.9c-.5-1.2-.9-2.3-1.4-3.5-.5 1.1-1 2.3-1.5 3.5h2.9zm6.1-2.2c0-1.6 0-2.8-.1-4 .4 0 .8.1 1.3.1s1 0 1.3-.1c-.1 1.3-.1 2.4-.1 4v2c0 1.6 0 2.8.1 4-.4 0-.8-.1-1.3-.1s-1 0-1.3.1c.1-1.3.1-2.4.1-4v-2zm7.8 1.4h-.1v.6c0 1.6 0 2.8.1 4-.4 0-.8-.1-1.3-.1s-1 0-1.3.1c.1-1.3.1-2.4.1-4v-2c0-1.6 0-2.8-.1-4 .4 0 .8.1 1.3.1.6 0 1.3-.1 2.4-.1 1.6 0 2.2.1 2.8.5.6.4 1 1.1 1 1.9 0 1.4-.9 2.3-2.5 2.7 1 1.6 2.2 3.3 3.4 5-.5 0-1-.1-1.4-.1-.5 0-1 0-1.5.1L49 10.5zm-.1-4.6v4h.4c1.4 0 2.2-.7 2.2-2.1-.1-1.7-.8-1.9-2.6-1.9zm7.9 3.2c0-1.6 0-2.8-.1-4 .3 0 .8.1 1.3.1s1 0 1.3-.1c-.1 1.3-.1 2.4-.1 4v2c0 1.6 0 2.8.1 4-.4 0-.8-.1-1.3-.1s-1 0-1.3.1c.1-1.3.1-2.4.1-4v-2zm5.4 0c0-1.6 0-2.8-.1-4 .9 0 1.9.1 2.9.1 1.6 0 2.9 0 3.4-.1 0 .2-.1.4-.1.6 0 .3 0 .4.1.7-1.2-.1-3.1-.2-3.6-.2-.1 1.1-.1 2.1-.1 3.2 1.4 0 2.4-.1 3.6-.1-.1.3-.1.5-.1.7 0 .2 0 .3.1.6-1.2-.1-2.4-.1-3.6-.1v3.7c1.2 0 2.4-.1 3.7-.2 0 .2-.1.4-.1.7s0 .5.1.6c-.6 0-1.3-.1-2.8-.1-2.6 0-3 0-3.4.1.1-1.3.1-2.4.1-4V9.1h-.1zm12.8 0c0-1.6 0-2.8-.1-4 .4 0 .8.1 1.3.1.7 0 1.5-.1 2.9-.1 3.7 0 6.2 1.1 6.2 4.7 0 3.2-2.5 5.3-5.6 5.3-1.6 0-2.7-.1-3.5-.1-.5 0-1 0-1.3.1.1-1.3.1-2.4.1-4v-2zm2.4 2.3v2.8h1.4c2.4 0 3.9-1.5 3.9-4.5 0-2.4-1.5-3.9-3.7-3.9-.8 0-1.2 0-1.7.1v5.5h.1zm10.3-2.3c0-1.6 0-2.8-.1-4 .9 0 1.9.1 2.9.1 1.6 0 2.9 0 3.4-.1 0 .2-.1.4-.1.6 0 .3 0 .4.1.7-1.2-.1-3.1-.2-3.6-.2-.1 1.1-.1 2.1-.1 3.2 1.4 0 2.4-.1 3.6-.1-.1.3-.1.5-.1.7 0 .2 0 .3.1.6-1.2-.1-2.4-.1-3.6-.1v3.7c1.2 0 2.4-.1 3.7-.2 0 .2-.1.4-.1.7s0 .5.1.6c-.6 0-1.3-.1-2.8-.1-2.6 0-3 0-3.4.1.1-1.3.1-2.4.1-4V9.1h-.1zm13.1 0c0-1.6 0-2.8-.1-4 .4 0 .8.1 1.3.1.7 0 1.6-.1 2.3-.1 1.5 0 2.3.2 2.8.6.7.5 1 1.1 1 2 0 2.2-1.7 3.1-4.1 3.1h-.8c0 1.5 0 2.9.1 4.4-.4 0-.8-.1-1.3-.1s-1 0-1.3.1c.1-1.3.1-2.4.1-4V9.1zm3-3.2h-.7V10c1.1 0 2.4-.3 2.4-2.1 0-1.5-.7-2-1.7-2zm14.2 9.3c-.5 0-1-.1-1.4-.1s-.9 0-1.4.1c-.3-1-.7-2-1.1-3h-3.8c-.4 1-.8 2-1.1 3-.3 0-.5-.1-.8-.1s-.5 0-.8.1c.8-1.6 3.2-6.8 4.6-10.1.2 0 .4.1.6.1.2 0 .4 0 .6-.1 1.5 3.2 3.3 7.7 4.6 10.1zm-4.3-3.9c-.5-1.2-.9-2.3-1.4-3.5-.5 1.1-1 2.3-1.5 3.5h2.9zm8.6-.8h-.1v.6c0 1.6 0 2.8.1 4-.4 0-.8-.1-1.3-.1s-1 0-1.3.1c.1-1.3.1-2.4.1-4v-2c0-1.6 0-2.8-.1-4 .4 0 .8.1 1.3.1.6 0 1.3-.1 2.4-.1 1.6 0 2.2.1 2.8.5.6.4 1 1.1 1 1.9 0 1.4-.9 2.3-2.5 2.7 1 1.6 2.2 3.3 3.4 5-.5 0-1-.1-1.4-.1s-1 0-1.5.1l-2.9-4.7zm-.1-4.6v4h.4c1.4 0 2.2-.7 2.2-2.1-.1-1.7-.9-1.9-2.6-1.9zm7.9 3.2c0-1.6 0-2.8-.1-4 .4 0 .8.1 1.3.1s1 0 1.3-.1c-.1 1.3-.1 2.4-.1 4v2c0 1.6 0 2.8.1 4-.4 0-.8-.1-1.3-.1s-1 0-1.3.1c.1-1.3.1-2.4.1-4v-2zm10.4-2c-.3-.8-1-1.3-1.9-1.3-1 0-1.7.6-1.7 1.3 0 2.2 4.9 1.6 4.9 4.9 0 2-1.7 3.3-4.3 3.3-1.2 0-2.1-.3-2.6-.6.2-.7.4-1.2.5-1.9h.3c.2.8.9 1.6 2.2 1.6 1.3 0 1.9-.7 1.9-1.5 0-2.2-4.8-1.6-4.8-4.9 0-2 1.7-3.1 3.6-3.1 1.2 0 2 .3 2.6.7-.2.5-.3.8-.5 1.4h-.2v.1zm23.3-7.2l-10.2 5.5s10.2 2.1 10.2 9.3c0 0 13.2-10.9 0-14.8zm0 14.8c5.4-.3 10.5-3.3 9.7-6.1l2.3 3s-1 6.7-12 8.7c-10.9-2-12-8.7-12-8.7l2.3-3c-.8 2.8 4.3 5.8 9.7 6.1z"/></svg>