<svg xmlns="http://www.w3.org/2000/svg" width="80" height="31" viewBox="0 0 80 31"><title>cv-logo-large-dark</title><desc>Created with Sketch.</desc><path d="M19.6 15.6l3.8 9.5 3.8-9.5h2.2l-6.1 14.7-5.9-14.7h2.2zm17.6 10.3h-5.8l-1.5 3.3h-2.2l6.7-14.4 6.4 14.4h-2.2l-1.4-3.3zm-.9-1.9l-2-4.6-2.1 4.6h4.1zm8.7-8.4v11.7h4v1.9h-6V15.6h2zm8.4 11.7h4v1.9h-6V15.6h2v11.7zm13.9-9.8h-5.4v3.3h5.2v2h-5.2v4.5h5.4v1.9h-7.5V15.6h7.5v1.9zm5.8 5.9l-4.5-7.8H71l3.1 5.5 3.1-5.5h2.4l-4.5 7.8v5.8h-2v-5.8zm-48-21.3v1.8c-.8-.7-1.7-1.1-2.6-1.1-1 0-1.9.4-2.6 1.1-.7.7-1 1.6-1 2.6 0 1.1.3 1.9 1 2.7.7.7 1.6 1 2.6 1 .5 0 .9-.1 1.3-.2.2-.1.4-.2.6-.4.2-.1.5-.3.7-.5v1.8c-.8.5-1.7.7-2.7.7-1.4 0-2.6-.5-3.5-1.5-1-.9-1.5-2.1-1.5-3.5 0-1.3.4-2.4 1.2-3.4 1-1.2 2.3-1.8 4-1.8.8 0 1.7.2 2.5.7zM31 7.2l3 4.2h-1.8l-2.8-4h-.2v4h-1.5V1.6h1.7c1.3 0 2.2.2 2.8.7.7.6 1 1.3 1 2.2 0 .7-.2 1.3-.6 1.8-.4.5-.9.8-1.6.9zm-1.8-1.1h.4c1.4 0 2.1-.5 2.1-1.6 0-1-.7-1.5-2-1.5h-.5v3.1zM41.4 3h-3.9v2.4h3.8v1.3h-3.8V10h3.9v1.4H36V1.6h5.4V3zM50 9h-4.2l-1.1 2.4h-1.6L48 1l4.7 10.4h-1.6L50 9zm-.6-1.4L48 4.3l-1.6 3.3h3zM56.6 3v8.4h-1.5V3h-2.3V1.6h6V3h-2.2zm5.3-1.4v9.8h-1.4V1.6h1.4zm3.2 0l2.7 6.8 2.8-6.8h1.6l-4.4 10.6-4.3-10.6h1.6zm14 1.4h-3.9v2.4H79v1.3h-3.8V10h3.9v1.4h-5.4V1.6h5.4V3zM13.6.7c.1-.1.1-.2 0-.2 0-.1-.1-.2-.2-.2s-.1 0-.1.1h-.2c-.1.1-.1.2-.1.3.1 0 .1.1.2.1-.2.1-.4.3-.6.3-.1 0-.1-.1-.2-.1.1 0 .1 0 .1-.1s-.1-.2-.3-.2c-.1 0-.2.1-.2.1-.1 0-.1.1-.1.1h-.2.1V.6c-.2-.1-.4-.2-.5-.1-.1 0-.2.1-.2.2s0 .1.1.2c-.5.1-1 .4-1.2.8l-.1-.1h-.1s-.1-.1-.2 0c-.1 0-.1.1-.2.2s0 .2.1.2c0 .1.1.1.1.1 0 .1.1.1.3.1 0 .2 0 .3-.1.4 0 .1 0 .1-.1.2v.1s-.1.1-.2.1c-.1.1-.3.1-.5.1-.1-.2-.1-.4-.2-.6-.1 0-.1-.1-.1-.1.2 0 .3-.2.2-.3l-.2-.2h-.2l-.1.1c-.1-.2-.3-.4-.6-.5.1 0 .1-.1.1-.1.1 0 .1-.1.1-.1V1c-.1-.1-.2-.1-.3 0h-.1v.1h-.1s-.1.1-.1.2c0 0 0 .1.1.1h-.2c-.4.1-.8.2-1 .6-.1.2-.1.5-.1.8.1.1.1.4-.1.4-.3-.1-.5-.4-.7-.5-1.2-.7-2.6 1.1-1.7 2-.1.1-.1.1-.1.2h-.4c0-.1.1-.1.1-.1.1-.1.1-.2 0-.3h-.2c-.1 0-.2 0-.2.1-.1.1 0 .2 0 .3H3s0 .1.1.1h-.3v-.1c0-.1-.1-.2-.3-.2-.2 0-.1.1-.1.2s-.1.1 0 .2.2.1.3 0v.2h-.1.1c0 .1 0 .1.1.1 0 .1.2.1.3 0v-.1h.2c-.1.2-.3.3-.4.5-.2.1-.4.2-.6.4 0-.1-.1-.1-.2-.1H2c-.1 0-.2.1-.2.2v.2h-.1c-.1.1-.2.1-.2.2s.1.2.2.2v.3s-.1 0-.1.1c-.1 0-.2.1-.2.2 0-.1 0-.1-.1-.1-.2 0-.3 0-.3.1s.2.2.3.2h.2v.1l.2.2v.2l.1.1c-.1.1-.3.1-.4.1-.5.1-1.1.3-1.3.8-.1.5.1.9.4 1.2.1.2.1.4.1.7 0 0-.1.1-.2.1-.4.3-.4.9-.1 1.3l.3.3H.5c-.1 0-.2.2-.1.3H.3s-.1 0-.1.1c-.1 0-.1.1-.1.1 0 .2.1.3.2.2h.1c.1.1.2 0 .2 0 .1-.1.1-.1.1-.2v-.1.1c.1.1.2.1.3 0h.1c0-.1.1 0 .1 0s.1-.1.2-.1c.2 0 .4-.2.5-.3H2c.3.1.6.1.9.3.1 0 .1.1.2.1l-.1.1h-.1c0 .1-.1.1-.2.1-.3.2-.6.4-.8.8-.1-.1-.1-.1-.2-.1-.2 0-.3 0-.3.1v.2c-.1.1-.1.2.1.3 0 0 .2.1.3 0 .1.3.3.6.6.8v.3l-.1-.1c-.1.1-.2.1-.3.2-.1 0-.1.1-.1.2v.1c0 .1.1.1.1.1.1.1.2.1.3 0h.1c.1.1.1.2.2.2v.5c-.1.2-.1.4-.1.6 0 0 .1 0 .1.1h-.2v.1c-.1.1-.1.2 0 .3h.2c.1 0 .2 0 .2-.1.3.3.8.3 1.1.2.3-.1.5-.2.7-.4v.1c.1.2.3.4.6.4h.3l-.2.2c0 .1.1.2.2.3.1.1.3 0 .3-.1v-.1c.1-.1.1-.1 0-.2.2.1.5.2.7.3.5.1 1.1-.1 1.6.1.4.3 1 .2 1.4.3.6.1 1.2.1 1.7.1h.1s0 .1.1.1c.7.3 1.1.5 1.7.9.1 0 .3.2.4.3v.2c0 .7.1 2.1.1 2.9 0 .4 0 .7-.1 1.1v.1c0 .2-.1.4-.2.7-.6.2-1.3.2-1.9.4-.3.1-.6.2-.8.3-.2.3-.4.5-.8.7-.2 0-.3 0-.5.1h-.5c-.1 0-.1.1-.1.2h6.1V1.1c-.2-.2-.8-.4-1.2-.4zM8.2 18.5c-.4-.2-.9-.1-1.3-.1-.2 0-.4-.1-.6-.1 0 0 .1 0 .1-.1v-.1l.1-.1c.2-.1.3-.2.5-.3 0 0-.1 0-.1-.1-.1-.1-.1-.3.1-.5v.1c.3.1.5.2.8.2 0 .1.1.2.2.2h.1c.1.1.2.1.3.1.3 0 .5.2.7.3-.1.1-.2.3-.1.4 0 .2 0 .3.1.4-.3-.1-.6-.1-.9-.3zm4.5 8c-.7.2-1.4.3-2.2.4 0 0 0 .1-.1.1.3-.3.5-.5.9-.7.6-.2 1.3-.2 1.9-.4-.1.2-.3.4-.5.6zm-2.8-7.7c.2 0 .3-.2.3-.4v-.2h.3c.1.1.2.3.3.4.1.1.1.2.2.3-.4 0-.7 0-1.1-.1zm3.6.7v.2c-.5-.3-1.2-.5-1.8-.7-.1-.1-.2-.1-.2-.2-.2-.2-.3-.4-.4-.6l-.2-.2v-.1c.1 0 .2 0 .3.1.1 0 .3 0 .4-.1v.4s0 .2-.1.2h.2c-.3 0-.3.2-.1.2.2 0 .2-.1.2-.2h.1c.2 0 .3-.3.3-.4 0-.1-.1-.3-.3-.3.2-.1.3-.4.1-.6 0 0 0-.1-.1-.1 0-.1 0-.1.1-.1l.1.1c.2.1.4.1.6.1.3.1.6.3.8.5-.1.6-.1 1.2 0 1.8z" fill="#4A4A4A" fill-rule="evenodd"/></svg>