<svg xmlns="http://www.w3.org/2000/svg" width="279.256" height="55.981" viewBox="-0.294 -0.317 279.25647 55.980793" enable-background="new -0.294 -0.317 146 29"><path d="M90.666 5.945c-2.934-1.276-6.075-2.107-8.87-2.107-4.086 0-6.126.897-6.126 2.514 0 4.627 18.223.91 18.223 10.785 0 4.088-3.743 7.243-11.243 7.243-4.45 0-7.926-.942-11.918-3.155l1.647-3.684c3.5 2 6.76 2.88 10.29 2.88 4.44 0 6.83-1.31 6.83-3.28 0-5.06-18.23-1.28-18.23-10.53 0-3.99 3.71-6.73 10.43-6.73 4.02 0 7.39.91 10.63 2.56l-1.67 3.52m20.31 18.56c-7.28 0-13.32-4.97-13.32-12.39 0-7.34 6.03-12.4 13.31-12.4 7.32 0 13.26 5.07 13.26 12.41 0 7.43-5.94 12.4-13.26 12.4m0-20.8c-5.3 0-8.92 3.68-8.92 8.4 0 4.84 3.46 8.44 8.92 8.44 5.42 0 8.87-3.63 8.87-8.43 0-4.723-3.45-8.402-8.87-8.402m30.65 20.77c-7.65 0-13.41-4.966-13.41-12.4 0-7.31 5.85-12.377 13.41-12.377 4.51 0 7.74 1.315 10.63 3.5L150 6.658c-2.105-1.66-4.742-2.87-8.254-2.87-5.58 0-9.05 3.615-9.05 8.31 0 4.834 3.5 8.343 9.106 8.343 3.505 0 6.285-1.16 8.38-2.82l2.266 3.44c-2.904 2.19-6.314 3.44-10.82 3.44M157.07.42h4.248v23.427h-4.248zm10.518 23.427V.42h20.81v3.874h-16.57v5.692h12.878v3.865H171.83v6.13h17.3v3.88h-21.54m37.353-19.58v19.57h-4.23V4.27h-9.318V.42h22.86v3.85h-9.312m12.72 19.577V.42h20.81v3.874h-16.57v5.692h12.888v3.865h-12.88v6.13h17.3v3.88h-21.54M83.8 51.57c2.323 0 4.72-.535 6.523-1.414v-6.81h4.12v9.095c-2.9 2-6.887 3.22-10.824 3.22-7.64 0-13.41-4.96-13.41-12.4 0-7.31 5.85-12.36 13.4-12.36 4.42 0 7.74 1.28 10.64 3.47L92 37.81c-2.115-1.658-4.764-2.79-8.274-2.79-5.575-.118-9.04 3.57-9.04 8.25 0 4.85 3.505 8.312 9.104 8.312m16.224 3.456V31.61h20.813v3.87h-16.58v5.69h12.894v3.87h-12.89v6.122h17.31v3.87h-21.54m29.85 0h-4.14v-23.42h4.32l14.9 17.65.11-.03c-.25-4.44-.28-8.03-.28-11.505V31.61h4.14v23.42h-4.29l-14.85-17.646-.07.035c.16 3.46.16 9.52.16 11.49v6.11m25.01 0V31.61h20.81v3.87H159.1v5.69h12.89v3.87H159.1v6.122h17.318v3.87h-21.54m37.09-8.616h-6.827v8.616h-4.24v-23.42h14.69c4.87 0 7.89 3.065 7.89 7.467 0 4.18-2.97 6.67-6.55 7.21l6.8 8.74h-5.3l-6.45-8.62m3.17-3.91c2.65 0 4.15-1.41 4.15-3.43 0-2.22-1.32-3.6-3.7-3.6h-10.44v7.03h10zm17.28 6.83l-2.62 5.68h-4.59l11.13-23.42h4.46l11.15 23.42h-4.563l-2.63-5.69h-12.33m1.764-3.8h8.8l-4.39-9.49-4.41 9.49zm20.88 9.49v-23.4h4.23v19.55h15.26v3.87h-19.49m22.35 0V31.61h20.82v3.87h-16.58v5.688h12.89v3.87h-12.89v6.122h17.31v3.87H257.4"/><path d="M-.294-.317h54.612v28.55H-.294z" fill="#ed1a3a" fill-rule="evenodd"/><path d="M-.294 27.674h54.612v27.99H-.294z" fill-rule="evenodd"/><path d="M9.248 27.672h35.53" fill="none" stroke="#fff" stroke-width="1.725" stroke-miterlimit="10"/></svg>